<svg width="24" height="24" viewBox="0 0 24 24" fill="none" xmlns="http://www.w3.org/2000/svg">
<path fill-rule="evenodd" clip-rule="evenodd" d="M16.5532 2.00002C15.1056 2 14.1724 2.17246 13.1027 2.69607C12.7066 2.88993 12.335 3.12339 11.99 3.39576C11.6582 3.13866 11.3015 2.91592 10.9218 2.72813C9.83132 2.18878 8.85028 2 7.45455 2C3.71644 2 1 5.09727 1 9.11988C1 12.1578 2.69383 15.0923 5.84884 17.9299C7.50489 19.4193 9.61932 20.8933 11.1336 21.6775L12 22.1261L12.8664 21.6775C14.3807 20.8933 16.4951 19.4193 18.1512 17.9299C21.3062 15.0923 23 12.1578 23 9.11988C23 5.13984 20.2579 2.01536 16.5532 2.00002Z" fill="black"/>
</svg>
